<svg xmlns="http://www.w3.org/2000/svg" viewBox="0 0 194.98 47.93"><defs><style>.cls-1{fill:#8b272d;}.cls-2{fill:#ff5252;}.cls-3{fill:#0f65a5;}.cls-4{fill:#399af3;}</style></defs><title>readme-logos</title><g id="Logos"><path class="cls-1" d="M4.52,2.56H26.76a4.43,4.43,0,0,1,1.88.3,1.5,1.5,0,0,1,.8.94,5.93,5.93,0,0,1,.2,1.68,5.68,5.68,0,0,1-.2,1.66,1.37,1.37,0,0,1-.68.86,4.66,4.66,0,0,1-2,.36H19.08V28.48A11.09,11.09,0,0,1,19,29.84a3.3,3.3,0,0,1-.36,1,1.68,1.68,0,0,1-1.06.82,6.82,6.82,0,0,1-2,.24,6.58,6.58,0,0,1-2-.24,1.69,1.69,0,0,1-1-.82,3.23,3.23,0,0,1-.36-1,11.7,11.7,0,0,1-.06-1.38V8.36H4.48a4.43,4.43,0,0,1-1.88-.3,1.5,1.5,0,0,1-.8-.94,5.93,5.93,0,0,1-.2-1.68,5.68,5.68,0,0,1,.2-1.66,1.37,1.37,0,0,1,.68-.86A4.66,4.66,0,0,1,4.52,2.56Z"/><path class="cls-1" d="M40.72,13.08c.16-1.49,1.21-2.24,3.16-2.24a8.3,8.3,0,0,1,2.32.24,1.67,1.67,0,0,1,1.06.84A3.4,3.4,0,0,1,47.62,13a11.7,11.7,0,0,1,.06,1.38v14a11.7,11.7,0,0,1-.06,1.38,3.58,3.58,0,0,1-.34,1.06c-.37.69-1.29,1-2.74,1a5.4,5.4,0,0,1-2.92-.54,2.18,2.18,0,0,1-.86-1.58c-1,1.41-2.63,2.12-4.94,2.12a8.7,8.7,0,0,1-6.42-3.16,10.42,10.42,0,0,1-3-7.34,10.28,10.28,0,0,1,3-7.32A8.92,8.92,0,0,1,36,10.88a6.23,6.23,0,0,1,2.48.48,5.41,5.41,0,0,1,1.56.9A5.79,5.79,0,0,1,40.72,13.08ZM33.44,21.4a3.34,3.34,0,0,0,1,2.38A3.38,3.38,0,0,0,37,24.84a3.17,3.17,0,0,0,2.46-1.08,3.48,3.48,0,0,0,1-2.38A3.68,3.68,0,0,0,39.5,19,3.12,3.12,0,0,0,37,17.84,3.23,3.23,0,0,0,34.42,19,3.66,3.66,0,0,0,33.44,21.4Z"/><path class="cls-1" d="M57.48,21.38A3.26,3.26,0,0,0,58.6,24,3.64,3.64,0,0,0,61,25a4.17,4.17,0,0,0,2.36-.74,3.55,3.55,0,0,1,1.78-.74c.8,0,1.77.71,2.92,2.12A3.53,3.53,0,0,1,69,27.68c0,1-.73,2-2.2,2.84a9.49,9.49,0,0,1-5.6,1.6A11.48,11.48,0,0,1,54,29.44,9.47,9.47,0,0,1,51.32,26a10.71,10.71,0,0,1-1-4.72,10.44,10.44,0,0,1,1-4.68A9.58,9.58,0,0,1,54,13.24a11.17,11.17,0,0,1,7.08-2.64A10.53,10.53,0,0,1,64,11a9.65,9.65,0,0,1,2.12.82l.64.4,1.12.76a2.29,2.29,0,0,1,1,1.82,4.31,4.31,0,0,1-.84,2.3c-1,1.47-1.88,2.2-2.76,2.2a4.57,4.57,0,0,1-2.16-.88,2.91,2.91,0,0,0-2.06-.68,3.85,3.85,0,0,0-2.5,1A3.28,3.28,0,0,0,57.48,21.38Z"/><path class="cls-1" d="M74.32,13.48A11,11,0,0,1,82,10.36a10.85,10.85,0,0,1,7.64,3.1A10.35,10.35,0,0,1,93,21.36a10.37,10.37,0,0,1-1.72,5.9,10.78,10.78,0,0,1-4.18,3.8A11.39,11.39,0,0,1,82,32.28,10.85,10.85,0,0,1,76.84,31a11.41,11.41,0,0,1-4.18-3.84A10.11,10.11,0,0,1,71,21.4,10.34,10.34,0,0,1,74.32,13.48Zm5,10.78a4.26,4.26,0,0,0,2.6,1,4.34,4.34,0,0,0,2.64-1,3.48,3.48,0,0,0,1.32-3,3.45,3.45,0,0,0-1.24-2.92,4.3,4.3,0,0,0-2.68-1,4.17,4.17,0,0,0-2.68,1A3.55,3.55,0,0,0,78,21.34,3.46,3.46,0,0,0,79.32,24.26Z"/><path class="cls-1" d="M92.68,2.56h22.24a4.43,4.43,0,0,1,1.88.3,1.53,1.53,0,0,1,.8.94,5.93,5.93,0,0,1,.2,1.68,5.68,5.68,0,0,1-.2,1.66,1.4,1.4,0,0,1-.68.86,4.66,4.66,0,0,1-2,.36h-7.64V28.48a11.09,11.09,0,0,1-.06,1.36,3.3,3.3,0,0,1-.36,1,1.68,1.68,0,0,1-1.06.82,6.87,6.87,0,0,1-2,.24,6.58,6.58,0,0,1-2-.24,1.69,1.69,0,0,1-1-.82,3.23,3.23,0,0,1-.36-1,11.7,11.7,0,0,1-.06-1.38V8.36H92.64a4.43,4.43,0,0,1-1.88-.3,1.5,1.5,0,0,1-.8-.94,5.59,5.59,0,0,1-.2-1.68A5.36,5.36,0,0,1,90,3.78a1.37,1.37,0,0,1,.68-.86A4.66,4.66,0,0,1,92.68,2.56Z"/><path class="cls-1" d="M126.58,6.94a1.7,1.7,0,0,1-1.06.82,6.92,6.92,0,0,1-2,.24,6.87,6.87,0,0,1-2-.24,1.67,1.67,0,0,1-1.06-.84,3.4,3.4,0,0,1-.36-1.06A11.7,11.7,0,0,1,120,4.48a11.7,11.7,0,0,1,.06-1.38,3.13,3.13,0,0,1,.34-1Q121,1,123.52,1c1.68,0,2.69.36,3,1.08a3.26,3.26,0,0,1,.38,1.06A11.7,11.7,0,0,1,127,4.52a11.7,11.7,0,0,1-.06,1.38A3.23,3.23,0,0,1,126.58,6.94ZM120,14.36a11.7,11.7,0,0,1,.06-1.38,3.58,3.58,0,0,1,.34-1.06c.37-.69,1.41-1,3.12-1a4.26,4.26,0,0,1,2.72.68,2.23,2.23,0,0,1,.72,1.72c0,.27,0,.65,0,1.16v14a11.7,11.7,0,0,1-.06,1.38,3.26,3.26,0,0,1-.38,1.06c-.35.69-1.38,1-3.08,1s-2.71-.36-3.08-1.08a3.66,3.66,0,0,1-.34-1,11.51,11.51,0,0,1-.06-1.4Z"/><path class="cls-1" d="M137.08,13.64q1.88-2.84,4.52-2.84a6.57,6.57,0,0,1,6.08,3.48A12.24,12.24,0,0,1,148.74,13a8.59,8.59,0,0,1,2-1.44,5.54,5.54,0,0,1,2.8-.78,6.85,6.85,0,0,1,5.36,2.46Q161,15.72,161,21.4v7a11.7,11.7,0,0,1-.06,1.38,3.26,3.26,0,0,1-.38,1.06c-.35.72-1.38,1.08-3.08,1.08s-2.71-.37-3.08-1.12a3.58,3.58,0,0,1-.34-1.06,11.7,11.7,0,0,1-.06-1.38v-7c0-2.32-.83-3.48-2.48-3.48a2,2,0,0,0-1.9.92,5.43,5.43,0,0,0-.5,2.6v7a11.51,11.51,0,0,1-.06,1.4,3.34,3.34,0,0,1-.38,1q-.57,1.08-3.12,1.08c-1.68,0-2.71-.37-3.08-1.12a3.58,3.58,0,0,1-.34-1.06,11.7,11.7,0,0,1-.06-1.38v-7c0-2.32-.83-3.48-2.48-3.48s-2.4,1.16-2.4,3.48v7.08a11.7,11.7,0,0,1-.06,1.38,3.26,3.26,0,0,1-.38,1.06c-.4.69-1.44,1-3.12,1s-2.71-.36-3.08-1.08a3.66,3.66,0,0,1-.34-1,11.51,11.51,0,0,1-.06-1.4V14.32a11.7,11.7,0,0,1,.06-1.38,2.68,2.68,0,0,1,.38-1c.4-.72,1.34-1.08,2.84-1.08s2.46.24,2.92.72A2.93,2.93,0,0,1,137.08,13.64Z"/><path class="cls-1" d="M184.56,18.86a4.88,4.88,0,0,1-1.22,3.64,3.81,3.81,0,0,1-2.7,1.18h-9.48a2.19,2.19,0,0,0,1.32,1.88,5.22,5.22,0,0,0,2.64.76,11,11,0,0,0,3.64-.48l.44-.16a4.08,4.08,0,0,1,1.6-.44c.85,0,1.58.6,2.2,1.8a4.5,4.5,0,0,1,.52,1.84q0,3.56-8.52,3.56a12.82,12.82,0,0,1-5.26-1,8.87,8.87,0,0,1-3.58-2.7,11.49,11.49,0,0,1-2.52-7.24,10.43,10.43,0,0,1,3.26-8.06,11.52,11.52,0,0,1,8.14-3q5.55,0,8.16,3.92A8.19,8.19,0,0,1,184.56,18.86ZM176.12,20c1,0,1.52-.43,1.52-1.28a1.82,1.82,0,0,0-.7-1.48,3.17,3.17,0,0,0-2-.56,4,4,0,0,0-2.58,1.06A3,3,0,0,0,171.08,20Z"/><path class="cls-1" d="M187.56,25.82a2.06,2.06,0,0,1,1.22-1.06,8.42,8.42,0,0,1,2.56-.28,3.5,3.5,0,0,1,2.52.76,3.24,3.24,0,0,1,.78,2.4v.64a12.13,12.13,0,0,1-.06,1.42,3.7,3.7,0,0,1-.38,1.1c-.43.77-1.45,1.16-3.06,1.16s-2.68-.26-3.2-.78a4.33,4.33,0,0,1-.78-3A5.26,5.26,0,0,1,187.56,25.82Zm5.36-4.66a8.52,8.52,0,0,1-2,.2,8.41,8.41,0,0,1-2-.2,1.59,1.59,0,0,1-1.06-.72,2.71,2.71,0,0,1-.36-.92,9.24,9.24,0,0,1-.06-1.24V5.6a9.7,9.7,0,0,1,.06-1.26,2.44,2.44,0,0,1,.38-.94,1.76,1.76,0,0,1,1.08-.74,7.39,7.39,0,0,1,2-.22,7.49,7.49,0,0,1,2,.22,1.7,1.7,0,0,1,1.06.76,2.88,2.88,0,0,1,.36,1,9.7,9.7,0,0,1,.06,1.26V18.32a9.24,9.24,0,0,1-.06,1.24,2.39,2.39,0,0,1-.38.9A1.78,1.78,0,0,1,192.92,21.16Z"/><path class="cls-2" d="M3.52,1.56H25.76a4.43,4.43,0,0,1,1.88.3,1.5,1.5,0,0,1,.8.94,5.93,5.93,0,0,1,.2,1.68,5.68,5.68,0,0,1-.2,1.66,1.37,1.37,0,0,1-.68.86,4.66,4.66,0,0,1-2,.36H18.08V27.48A11.09,11.09,0,0,1,18,28.84a3.3,3.3,0,0,1-.36,1,1.68,1.68,0,0,1-1.06.82,6.82,6.82,0,0,1-2,.24,6.58,6.58,0,0,1-2-.24,1.69,1.69,0,0,1-1-.82,3.23,3.23,0,0,1-.36-1,11.7,11.7,0,0,1-.06-1.38V7.36H3.48a4.43,4.43,0,0,1-1.88-.3,1.5,1.5,0,0,1-.8-.94A5.93,5.93,0,0,1,.6,4.44,5.68,5.68,0,0,1,.8,2.78a1.37,1.37,0,0,1,.68-.86A4.66,4.66,0,0,1,3.52,1.56Z"/><path class="cls-2" d="M39.72,12.08c.16-1.49,1.21-2.24,3.16-2.24a8.3,8.3,0,0,1,2.32.24,1.67,1.67,0,0,1,1.06.84A3.4,3.4,0,0,1,46.62,12a11.7,11.7,0,0,1,.06,1.38v14a11.7,11.7,0,0,1-.06,1.38,3.58,3.58,0,0,1-.34,1.06c-.37.69-1.29,1-2.74,1a5.4,5.4,0,0,1-2.92-.54,2.18,2.18,0,0,1-.86-1.58c-1,1.41-2.63,2.12-4.94,2.12a8.7,8.7,0,0,1-6.42-3.16,10.42,10.42,0,0,1-3-7.34,10.28,10.28,0,0,1,3-7.32A8.92,8.92,0,0,1,35,9.88a6.23,6.23,0,0,1,2.48.48,5.41,5.41,0,0,1,1.56.9A5.79,5.79,0,0,1,39.72,12.08ZM32.44,20.4a3.34,3.34,0,0,0,1,2.38A3.38,3.38,0,0,0,36,23.84a3.17,3.17,0,0,0,2.46-1.08,3.48,3.48,0,0,0,1-2.38A3.68,3.68,0,0,0,38.5,18,3.12,3.12,0,0,0,36,16.84,3.23,3.23,0,0,0,33.42,18,3.66,3.66,0,0,0,32.44,20.4Z"/><path class="cls-2" d="M56.48,20.38A3.26,3.26,0,0,0,57.6,23,3.64,3.64,0,0,0,60,24a4.17,4.17,0,0,0,2.36-.74,3.55,3.55,0,0,1,1.78-.74c.8,0,1.77.71,2.92,2.12A3.53,3.53,0,0,1,68,26.68c0,1-.73,2-2.2,2.84a9.49,9.49,0,0,1-5.6,1.6A11.48,11.48,0,0,1,53,28.44,9.47,9.47,0,0,1,50.32,25a10.71,10.71,0,0,1-1-4.72,10.44,10.44,0,0,1,1-4.68A9.58,9.58,0,0,1,53,12.24,11.17,11.17,0,0,1,60.08,9.6,10.53,10.53,0,0,1,63,10a9.65,9.65,0,0,1,2.12.82l.64.4,1.12.76a2.29,2.29,0,0,1,1,1.82,4.31,4.31,0,0,1-.84,2.3c-1,1.47-1.88,2.2-2.76,2.2a4.57,4.57,0,0,1-2.16-.88,2.91,2.91,0,0,0-2.06-.68,3.85,3.85,0,0,0-2.5,1A3.28,3.28,0,0,0,56.48,20.38Z"/><path class="cls-2" d="M73.32,12.48A11,11,0,0,1,81,9.36a10.85,10.85,0,0,1,7.64,3.1A10.35,10.35,0,0,1,92,20.36a10.37,10.37,0,0,1-1.72,5.9,10.78,10.78,0,0,1-4.18,3.8A11.39,11.39,0,0,1,81,31.28,10.85,10.85,0,0,1,75.84,30a11.41,11.41,0,0,1-4.18-3.84A10.11,10.11,0,0,1,70,20.4,10.34,10.34,0,0,1,73.32,12.48Zm5,10.78a4.26,4.26,0,0,0,2.6,1,4.34,4.34,0,0,0,2.64-1,3.48,3.48,0,0,0,1.32-3,3.45,3.45,0,0,0-1.24-2.92,4.3,4.3,0,0,0-2.68-1,4.17,4.17,0,0,0-2.68,1A3.55,3.55,0,0,0,77,20.34,3.46,3.46,0,0,0,78.32,23.26Z"/><path class="cls-2" d="M91.68,1.56h22.24a4.43,4.43,0,0,1,1.88.3,1.53,1.53,0,0,1,.8.94,5.93,5.93,0,0,1,.2,1.68,5.68,5.68,0,0,1-.2,1.66,1.4,1.4,0,0,1-.68.86,4.66,4.66,0,0,1-2,.36h-7.64V27.48a11.09,11.09,0,0,1-.06,1.36,3.3,3.3,0,0,1-.36,1,1.68,1.68,0,0,1-1.06.82,6.87,6.87,0,0,1-2,.24,6.58,6.58,0,0,1-2-.24,1.69,1.69,0,0,1-1-.82,3.23,3.23,0,0,1-.36-1,11.7,11.7,0,0,1-.06-1.38V7.36H91.64a4.43,4.43,0,0,1-1.88-.3,1.5,1.5,0,0,1-.8-.94,5.59,5.59,0,0,1-.2-1.68A5.36,5.36,0,0,1,89,2.78a1.37,1.37,0,0,1,.68-.86A4.66,4.66,0,0,1,91.68,1.56Z"/><path class="cls-2" d="M125.58,5.94a1.7,1.7,0,0,1-1.06.82,6.92,6.92,0,0,1-2,.24,6.87,6.87,0,0,1-2-.24,1.67,1.67,0,0,1-1.06-.84,3.4,3.4,0,0,1-.36-1.06A11.7,11.7,0,0,1,119,3.48a11.7,11.7,0,0,1,.06-1.38,3.13,3.13,0,0,1,.34-1Q120,0,122.52,0c1.68,0,2.69.36,3,1.08a3.26,3.26,0,0,1,.38,1.06A11.7,11.7,0,0,1,126,3.52a11.7,11.7,0,0,1-.06,1.38A3.23,3.23,0,0,1,125.58,5.94ZM119,13.36a11.7,11.7,0,0,1,.06-1.38,3.58,3.58,0,0,1,.34-1.06c.37-.69,1.41-1,3.12-1a4.26,4.26,0,0,1,2.72.68,2.23,2.23,0,0,1,.72,1.72c0,.27,0,.65,0,1.16v14a11.7,11.7,0,0,1-.06,1.38,3.26,3.26,0,0,1-.38,1.06c-.35.69-1.38,1-3.08,1s-2.71-.36-3.08-1.08a3.66,3.66,0,0,1-.34-1,11.51,11.51,0,0,1-.06-1.4Z"/><path class="cls-2" d="M136.08,12.64Q138,9.81,140.6,9.8a6.57,6.57,0,0,1,6.08,3.48A12.24,12.24,0,0,1,147.74,12a8.59,8.59,0,0,1,2-1.44,5.54,5.54,0,0,1,2.8-.78,6.85,6.85,0,0,1,5.36,2.46Q160,14.72,160,20.4v7a11.7,11.7,0,0,1-.06,1.38,3.26,3.26,0,0,1-.38,1.06c-.35.72-1.38,1.08-3.08,1.08s-2.71-.37-3.08-1.12a3.58,3.58,0,0,1-.34-1.06,11.7,11.7,0,0,1-.06-1.38v-7c0-2.32-.83-3.48-2.48-3.48a2,2,0,0,0-1.9.92,5.43,5.43,0,0,0-.5,2.6v7a11.51,11.51,0,0,1-.06,1.4,3.34,3.34,0,0,1-.38,1q-.57,1.08-3.12,1.08c-1.68,0-2.71-.37-3.08-1.12a3.58,3.58,0,0,1-.34-1.06,11.7,11.7,0,0,1-.06-1.38v-7c0-2.32-.83-3.48-2.48-3.48s-2.4,1.16-2.4,3.48v7.08a11.7,11.7,0,0,1-.06,1.38,3.26,3.26,0,0,1-.38,1.06c-.4.69-1.44,1-3.12,1s-2.71-.36-3.08-1.08a3.66,3.66,0,0,1-.34-1,11.51,11.51,0,0,1-.06-1.4V13.32a11.7,11.7,0,0,1,.06-1.38,2.68,2.68,0,0,1,.38-1c.4-.72,1.34-1.08,2.84-1.08s2.46.24,2.92.72A2.93,2.93,0,0,1,136.08,12.64Z"/><path class="cls-2" d="M183.56,17.86a4.88,4.88,0,0,1-1.22,3.64,3.81,3.81,0,0,1-2.7,1.18h-9.48a2.19,2.19,0,0,0,1.32,1.88,5.22,5.22,0,0,0,2.64.76,11,11,0,0,0,3.64-.48l.44-.16a4.08,4.08,0,0,1,1.6-.44c.85,0,1.58.6,2.2,1.8a4.5,4.5,0,0,1,.52,1.84q0,3.56-8.52,3.56a12.82,12.82,0,0,1-5.26-1,8.87,8.87,0,0,1-3.58-2.7,11.49,11.49,0,0,1-2.52-7.24,10.43,10.43,0,0,1,3.26-8.06,11.52,11.52,0,0,1,8.14-3q5.55,0,8.16,3.92A8.19,8.19,0,0,1,183.56,17.86ZM175.12,19c1,0,1.52-.43,1.52-1.28a1.82,1.82,0,0,0-.7-1.48,3.17,3.17,0,0,0-2-.56,4,4,0,0,0-2.58,1.06A3,3,0,0,0,170.08,19Z"/><path class="cls-2" d="M186.56,24.82a2.06,2.06,0,0,1,1.22-1.06,8.42,8.42,0,0,1,2.56-.28,3.5,3.5,0,0,1,2.52.76,3.24,3.24,0,0,1,.78,2.4v.64a12.13,12.13,0,0,1-.06,1.42,3.7,3.7,0,0,1-.38,1.1c-.43.77-1.45,1.16-3.06,1.16s-2.68-.26-3.2-.78a4.33,4.33,0,0,1-.78-3A5.26,5.26,0,0,1,186.56,24.82Zm5.36-4.66a8.52,8.52,0,0,1-2,.2,8.41,8.41,0,0,1-2-.2,1.59,1.59,0,0,1-1.06-.72,2.71,2.71,0,0,1-.36-.92,9.24,9.24,0,0,1-.06-1.24V4.6a9.7,9.7,0,0,1,.06-1.26,2.44,2.44,0,0,1,.38-.94,1.76,1.76,0,0,1,1.08-.74,7.39,7.39,0,0,1,2-.22,7.49,7.49,0,0,1,2,.22,1.7,1.7,0,0,1,1.06.76,2.88,2.88,0,0,1,.36,1,9.7,9.7,0,0,1,.06,1.26V17.32a9.24,9.24,0,0,1-.06,1.24,2.39,2.39,0,0,1-.38.9A1.78,1.78,0,0,1,191.92,20.16Z"/><path class="cls-3" d="M72.63,38.71q-1.06-.33-1.95-.66a6,6,0,0,1-1.52-.85,3.82,3.82,0,0,1-1-1.22,4.24,4.24,0,0,1-.42-1.78,3.93,3.93,0,0,1,1.46-3.32,7,7,0,0,1,4.35-1.38,12.05,12.05,0,0,1,1.93.07A6.18,6.18,0,0,1,77,30a2.64,2.64,0,0,1,1,.74,1.76,1.76,0,0,1,.4,1.07,2,2,0,0,1-.25,1.08,3,3,0,0,1-.67.78,5.31,5.31,0,0,0-1.43-.53,7.21,7.21,0,0,0-2-.19,3.26,3.26,0,0,0-1.57.36.84.84,0,0,0-.47.77.66.66,0,0,0,.33.58,3.23,3.23,0,0,0,1,.39l1.29.36a9.16,9.16,0,0,1,3.53,1.71A4.28,4.28,0,0,1,78,43.42a7.51,7.51,0,0,1-4.68,1.43,10.54,10.54,0,0,1-2.06-.1,6.44,6.44,0,0,1-1.67-.47,3.1,3.1,0,0,1-1.14-.82A1.92,1.92,0,0,1,68,42.28a1.78,1.78,0,0,1,.36-1.2,3.17,3.17,0,0,1,.86-.79,6.61,6.61,0,0,0,1.68.86,5.7,5.7,0,0,0,2.13.3A2.83,2.83,0,0,0,74.71,41a1,1,0,0,0,.44-.85.81.81,0,0,0-.41-.72A4.65,4.65,0,0,0,73.65,39Z"/><path class="cls-3" d="M87.84,44.33A8.7,8.7,0,0,1,85.2,44a6,6,0,0,1-2.15-1.11A5.47,5.47,0,0,1,81.56,41a7.16,7.16,0,0,1-.62-2.79,6.48,6.48,0,0,1,.42-2.74,5.29,5.29,0,0,1,3.17-3.07A7.16,7.16,0,0,1,86.72,32a6.72,6.72,0,0,1,2.33.3,5.61,5.61,0,0,1,1.84,1,4.72,4.72,0,0,1,1.23,1.57,4.85,4.85,0,0,1,.49,2,1.62,1.62,0,0,1-.41,1.27,2.33,2.33,0,0,1-1.25.59l-5.89,1.1a2,2,0,0,0,1.12,1.15,4.09,4.09,0,0,0,1.89.33A6.58,6.58,0,0,0,89.92,41a5.93,5.93,0,0,0,1.4-.64A2,2,0,0,1,92,41a1.67,1.67,0,0,1,.3.9,1.72,1.72,0,0,1-1,1.65,5.34,5.34,0,0,1-1.71.61A11.88,11.88,0,0,1,87.84,44.33Zm-1-9.4a2.26,2.26,0,0,0-1,.23,2,2,0,0,0-.67.51,2.3,2.3,0,0,0-.37.69,2.82,2.82,0,0,0-.13.76l4.08-.82a1.84,1.84,0,0,0-.56-.94A1.78,1.78,0,0,0,86.83,34.93Z"/><path class="cls-3" d="M100.36,43.88A7.47,7.47,0,0,1,98,43.59a5.2,5.2,0,0,1-2-1.07,5.27,5.27,0,0,1-1.34-1.87,7.48,7.48,0,0,1-.55-2.7,7,7,0,0,1,.38-2.69,5.35,5.35,0,0,1,1.29-2A5.64,5.64,0,0,1,97.85,32a9,9,0,0,1,2.73-.51,8.66,8.66,0,0,1,2.53.27,6.52,6.52,0,0,1,1.83.73,2.81,2.81,0,0,1,.79.74,2,2,0,0,1,.31,1.07l.47,13.05c-.16,0-.41.11-.76.18a6.38,6.38,0,0,1-1.08.12,5.74,5.74,0,0,1-1,0,1.44,1.44,0,0,1-.71-.26,1.37,1.37,0,0,1-.46-.57,3,3,0,0,1-.18-1l-.08-2.27a4,4,0,0,1-.9.27A8.77,8.77,0,0,1,100.36,43.88Zm1.64-9a2.6,2.6,0,0,0-.51-.15,2.77,2.77,0,0,0-.67,0,2.56,2.56,0,0,0-2,.83,3.25,3.25,0,0,0-.62,2.29A3.19,3.19,0,0,0,99,40a2.49,2.49,0,0,0,1.92.63,2.26,2.26,0,0,0,1.28-.38Z"/><path class="cls-3" d="M108.49,31.7a4.59,4.59,0,0,1,.75-.18,9.23,9.23,0,0,1,1.07-.11,5.69,5.69,0,0,1,1,0,1.76,1.76,0,0,1,.72.26,1.42,1.42,0,0,1,.46.58,2.47,2.47,0,0,1,.19,1l.19,5.16a1.75,1.75,0,0,0,.53,1.38,2,2,0,0,0,1.41.37,3,3,0,0,0,.89-.13,2.63,2.63,0,0,0,.53-.21l-.3-8.39a4.82,4.82,0,0,1,.75-.17,7.31,7.31,0,0,1,1.07-.11,5.8,5.8,0,0,1,1,0,1.55,1.55,0,0,1,.71.27,1.27,1.27,0,0,1,.47.57,2.47,2.47,0,0,1,.19,1l.26,7.3a1.94,1.94,0,0,1-.94,1.83,6.87,6.87,0,0,1-2,.88,10.93,10.93,0,0,1-2.52.36,9.19,9.19,0,0,1-2.4-.2,5.29,5.29,0,0,1-1.92-.82,4,4,0,0,1-1.27-1.5,5.47,5.47,0,0,1-.52-2.27Z"/><path class="cls-3" d="M129.05,42.84a8.73,8.73,0,0,1-2.65-.3,6.19,6.19,0,0,1-2.15-1.11,5.59,5.59,0,0,1-1.49-1.94,7.17,7.17,0,0,1-.61-2.79,6.65,6.65,0,0,1,.41-2.74A5.5,5.5,0,0,1,123.85,32a5.42,5.42,0,0,1,1.88-1.15,7.16,7.16,0,0,1,2.2-.43,6.43,6.43,0,0,1,2.32.31,5.51,5.51,0,0,1,1.84,1,4.68,4.68,0,0,1,1.23,1.56,4.86,4.86,0,0,1,.5,2,1.66,1.66,0,0,1-.41,1.27,2.22,2.22,0,0,1-1.25.59l-5.9,1.11a2,2,0,0,0,1.13,1.14,4.08,4.08,0,0,0,1.88.33,6.52,6.52,0,0,0,1.85-.32,5.84,5.84,0,0,0,1.41-.64,2.18,2.18,0,0,1,.67.65,1.86,1.86,0,0,1,.3.9,1.75,1.75,0,0,1-.95,1.65,5.52,5.52,0,0,1-1.71.61A12.18,12.18,0,0,1,129.05,42.84Zm-1-9.4a2.33,2.33,0,0,0-1,.23,2.15,2.15,0,0,0-.66.51,2.1,2.1,0,0,0-.37.69,2.82,2.82,0,0,0-.13.76l4.08-.82a1.8,1.8,0,0,0-.57-.94A1.76,1.76,0,0,0,128,33.44Z"/><path class="cls-3" d="M140.18,42l-.77.16a6,6,0,0,1-1,.12,5.69,5.69,0,0,1-1,0,1.52,1.52,0,0,1-.72-.26,1.31,1.31,0,0,1-.46-.57,2.51,2.51,0,0,1-.2-1l-.5-13.91.78-.16a5.91,5.91,0,0,1,1-.12,5.74,5.74,0,0,1,.95,0,1.55,1.55,0,0,1,.71.26,1.39,1.39,0,0,1,.47.57,2.57,2.57,0,0,1,.19,1Z"/><path class="cls-3" d="M142.12,27.07a2.09,2.09,0,0,1,.55-1.56,2.16,2.16,0,0,1,1.6-.68,2.18,2.18,0,0,1,1.64.57,2.22,2.22,0,0,1,.11,3.07,2.41,2.41,0,0,1-3.24.11A2.09,2.09,0,0,1,142.12,27.07Zm4.8,14.72-.77.16a7.2,7.2,0,0,1-1,.12,5.69,5.69,0,0,1-1,0,1.76,1.76,0,0,1-.72-.26,1.47,1.47,0,0,1-.47-.57,2.78,2.78,0,0,1-.19-1l-.35-9.76.78-.16a5.91,5.91,0,0,1,1-.12,4.83,4.83,0,0,1,.95,0,1.44,1.44,0,0,1,.71.26,1.33,1.33,0,0,1,.47.57,2.71,2.71,0,0,1,.19,1Z"/><path class="cls-3" d="M149.92,41.7a2.51,2.51,0,0,1-.64-.77,2.27,2.27,0,0,1-.26-1,2.06,2.06,0,0,1,.19-1,4.75,4.75,0,0,1,.53-.89l3.95-5-4.41.16a4.2,4.2,0,0,1-.3-.66,3.06,3.06,0,0,1-.17-.88,1.64,1.64,0,0,1,.33-1.22,1.32,1.32,0,0,1,1-.41l7.56-.28a2.77,2.77,0,0,1,.64.77,2.27,2.27,0,0,1,.26,1,2,2,0,0,1-.19,1,4.53,4.53,0,0,1-.53.9l-3.86,5,4.71-.17a4.2,4.2,0,0,1,.3.66,3.06,3.06,0,0,1,.16.88,1.68,1.68,0,0,1-.33,1.23,1.38,1.38,0,0,1-1,.41Z"/><path class="cls-3" d="M167,41.47a8.63,8.63,0,0,1-2.64-.3,6.15,6.15,0,0,1-2.16-1.11,5.45,5.45,0,0,1-1.48-1.94,7,7,0,0,1-.62-2.79,6.48,6.48,0,0,1,.42-2.74,5.35,5.35,0,0,1,1.28-1.92,5.51,5.51,0,0,1,1.88-1.15,7.22,7.22,0,0,1,2.2-.43,6.72,6.72,0,0,1,2.33.3,5.56,5.56,0,0,1,1.83,1A4.88,4.88,0,0,1,171.27,32a5,5,0,0,1,.49,2,1.66,1.66,0,0,1-.41,1.27,2.33,2.33,0,0,1-1.25.59l-5.89,1.1a1.92,1.92,0,0,0,1.12,1.15,4.08,4.08,0,0,0,1.88.33,6.46,6.46,0,0,0,1.85-.32,5.84,5.84,0,0,0,1.41-.64,2.07,2.07,0,0,1,.67.65,1.67,1.67,0,0,1,.3.9,1.73,1.73,0,0,1-.95,1.65,5.34,5.34,0,0,1-1.71.61A12,12,0,0,1,167,41.47Zm-1-9.4a2.26,2.26,0,0,0-1,.23,2,2,0,0,0-.67.51,2.1,2.1,0,0,0-.37.69,2.82,2.82,0,0,0-.13.76l4.08-.82a1.84,1.84,0,0,0-.56-.94A1.78,1.78,0,0,0,166,32.07Z"/><path class="cls-3" d="M173.26,35a7.18,7.18,0,0,1,.38-2.76,5.18,5.18,0,0,1,1.26-2,5.58,5.58,0,0,1,1.95-1.21,7.73,7.73,0,0,1,2.45-.46,4.9,4.9,0,0,1,.94.05,3.17,3.17,0,0,1,.75.18L180.85,25c.16-.05.41-.11.76-.18a7.59,7.59,0,0,1,1.08-.13,5.74,5.74,0,0,1,.95,0,1.67,1.67,0,0,1,.71.26,1.34,1.34,0,0,1,.46.58,2.93,2.93,0,0,1,.18,1l.41,11.37a2.09,2.09,0,0,1-1,1.84,7.68,7.68,0,0,1-1.77.87,8.94,8.94,0,0,1-2.53.44,8.57,8.57,0,0,1-2.81-.34,5.49,5.49,0,0,1-2.14-1.17,5.42,5.42,0,0,1-1.36-1.9A7.29,7.29,0,0,1,173.26,35ZM180,31.78a2.61,2.61,0,0,0-2,.81,3.24,3.24,0,0,0-.61,2.28,3.33,3.33,0,0,0,.73,2.22,2.31,2.31,0,0,0,1.89.69,2.12,2.12,0,0,0,.78-.16,1.85,1.85,0,0,0,.53-.32L181.13,32A2.18,2.18,0,0,0,180,31.78Z"/><path class="cls-3" d="M188,38.5a2.15,2.15,0,0,1,2.22-2.34,2.17,2.17,0,0,1,2.39,2.17A2.29,2.29,0,0,1,192,40a2.24,2.24,0,0,1-1.67.69,2.2,2.2,0,0,1-1.71-.57A2.24,2.24,0,0,1,188,38.5Zm4-12.25c0,.37,0,.9,0,1.6s0,1.45,0,2.26-.06,1.62-.11,2.43-.12,1.51-.21,2.11a1.17,1.17,0,0,1-.28.15,2.46,2.46,0,0,1-.41.13,3,3,0,0,1-.43.09,2.9,2.9,0,0,1-.38,0,2.78,2.78,0,0,1-1.17-.17,1.1,1.1,0,0,1-.62-.82,13.56,13.56,0,0,1-.26-1.67c-.09-.75-.17-1.57-.25-2.44s-.14-1.75-.2-2.61-.09-1.6-.12-2.21a4.81,4.81,0,0,1,1.08-.46,5.1,5.1,0,0,1,1.21-.2,2.33,2.33,0,0,1,1.54.4A1.75,1.75,0,0,1,192,26.25Z"/><path class="cls-4" d="M72.15,38.22c-.71-.21-1.36-.43-1.94-.66a6.12,6.12,0,0,1-1.52-.84,3.78,3.78,0,0,1-1-1.23,4.05,4.05,0,0,1-.41-1.77,3.91,3.91,0,0,1,1.45-3.32A7,7,0,0,1,73.07,29a11.88,11.88,0,0,1,1.92.07,6.07,6.07,0,0,1,1.54.39,2.62,2.62,0,0,1,1,.73,1.65,1.65,0,0,1,.4,1.08,1.81,1.81,0,0,1-.25,1.08,3.11,3.11,0,0,1-.66.78,5.58,5.58,0,0,0-1.44-.54,7.61,7.61,0,0,0-1.95-.18,3.23,3.23,0,0,0-1.57.36.87.87,0,0,0-.48.77.72.72,0,0,0,.33.58,3.38,3.38,0,0,0,.95.38l1.29.37a9.15,9.15,0,0,1,3.53,1.7,3.94,3.94,0,0,1,1.32,3,4,4,0,0,1-1.49,3.36,7.51,7.51,0,0,1-4.68,1.43,10.41,10.41,0,0,1-2-.11,6.41,6.41,0,0,1-1.68-.46A3,3,0,0,1,68,43a1.88,1.88,0,0,1-.44-1.17,1.78,1.78,0,0,1,.36-1.2,3.17,3.17,0,0,1,.86-.79,6.29,6.29,0,0,0,1.68.85,5.56,5.56,0,0,0,2.14.31,2.87,2.87,0,0,0,1.64-.42,1,1,0,0,0,.45-.86.8.8,0,0,0-.41-.71,5.19,5.19,0,0,0-1.1-.46Z"/><path class="cls-4" d="M87.36,43.85a8.7,8.7,0,0,1-2.64-.3,6,6,0,0,1-2.15-1.12,5.5,5.5,0,0,1-1.49-1.94,6.9,6.9,0,0,1-.61-2.78A6.62,6.62,0,0,1,80.88,35a5.5,5.5,0,0,1,1.29-1.92,5.42,5.42,0,0,1,1.88-1.15,7.16,7.16,0,0,1,2.19-.43,6.68,6.68,0,0,1,2.33.3,5.51,5.51,0,0,1,1.84,1,4.62,4.62,0,0,1,1.23,1.57,4.82,4.82,0,0,1,.5,2,1.65,1.65,0,0,1-.41,1.26,2.3,2.3,0,0,1-1.26.6l-5.89,1.1a2,2,0,0,0,1.12,1.15,4.43,4.43,0,0,0,1.89.33,6.89,6.89,0,0,0,1.85-.32,5.84,5.84,0,0,0,1.41-.64,2.07,2.07,0,0,1,.67.65,1.74,1.74,0,0,1,.29.9,1.69,1.69,0,0,1-1,1.64,5.38,5.38,0,0,1-1.7.62A12.16,12.16,0,0,1,87.36,43.85Zm-1-9.41a2.67,2.67,0,0,0-1,.23,2,2,0,0,0-1,1.2,2.59,2.59,0,0,0-.13.77l4.08-.82a1.81,1.81,0,0,0-1.93-1.38Z"/><path class="cls-4" d="M99.88,43.39a7.41,7.41,0,0,1-2.38-.28,5.09,5.09,0,0,1-3.3-2.94,7.27,7.27,0,0,1-.56-2.7A6.93,6.93,0,0,1,94,34.78a5.37,5.37,0,0,1,1.28-2,5.71,5.71,0,0,1,2.07-1.28,8.84,8.84,0,0,1,2.73-.51,8.7,8.7,0,0,1,2.53.27,6.81,6.81,0,0,1,1.83.72,2.8,2.8,0,0,1,.78.75,1.93,1.93,0,0,1,.31,1.06l.48,13a5.68,5.68,0,0,1-.77.19,7.45,7.45,0,0,1-1.07.12,5.69,5.69,0,0,1-1,0,1.63,1.63,0,0,1-.72-.26,1.28,1.28,0,0,1-.45-.57,2.58,2.58,0,0,1-.18-1L101.82,43a3.89,3.89,0,0,1-.91.27A5.7,5.7,0,0,1,99.88,43.39Zm1.65-9a3.09,3.09,0,0,0-.51-.15,2.89,2.89,0,0,0-.68,0,2.55,2.55,0,0,0-2,.82,3.21,3.21,0,0,0-.61,2.29,3.16,3.16,0,0,0,.75,2.26,2.49,2.49,0,0,0,1.92.63,2.19,2.19,0,0,0,1.28-.39Z"/><path class="cls-4" d="M108,31.21a6.37,6.37,0,0,1,.75-.17,7.17,7.17,0,0,1,1.06-.11,5.69,5.69,0,0,1,1,0,1.63,1.63,0,0,1,.72.26,1.37,1.37,0,0,1,.46.57,2.55,2.55,0,0,1,.2,1l.18,5.15a1.81,1.81,0,0,0,.53,1.39,2.06,2.06,0,0,0,1.41.37,3.45,3.45,0,0,0,.9-.13,3.23,3.23,0,0,0,.53-.21L115.4,31a4.59,4.59,0,0,1,.75-.18,9.23,9.23,0,0,1,1.07-.11,5.69,5.69,0,0,1,1,0,1.76,1.76,0,0,1,.72.26,1.42,1.42,0,0,1,.46.58,2.3,2.3,0,0,1,.19,1l.27,7.29a2,2,0,0,1-1,1.84,6.49,6.49,0,0,1-2,.87,10.41,10.41,0,0,1-2.52.37,9.73,9.73,0,0,1-2.4-.2,5.42,5.42,0,0,1-1.91-.82,4,4,0,0,1-1.28-1.5,5.48,5.48,0,0,1-.51-2.28Z"/><path class="cls-4" d="M128.57,42.36a8.66,8.66,0,0,1-2.64-.3A6.15,6.15,0,0,1,123.77,41,5.66,5.66,0,0,1,122.29,39a7,7,0,0,1-.62-2.79,6.46,6.46,0,0,1,.42-2.74,5.24,5.24,0,0,1,1.29-1.92,5.33,5.33,0,0,1,1.88-1.15,7.16,7.16,0,0,1,2.19-.43,6.72,6.72,0,0,1,2.33.3,5.56,5.56,0,0,1,1.83,1,4.65,4.65,0,0,1,1.24,1.57,5,5,0,0,1,.49,2,1.63,1.63,0,0,1-.41,1.26,2.26,2.26,0,0,1-1.25.6l-5.89,1.1A2,2,0,0,0,126.91,39a4.21,4.21,0,0,0,1.88.33,6.46,6.46,0,0,0,1.85-.32,5.84,5.84,0,0,0,1.41-.64,2,2,0,0,1,.67.65,1.67,1.67,0,0,1,.3.9,1.71,1.71,0,0,1-1,1.64,5.35,5.35,0,0,1-1.71.62A11.88,11.88,0,0,1,128.57,42.36Zm-1-9.4a2.41,2.41,0,0,0-1,.22,2,2,0,0,0-.67.52,2.1,2.1,0,0,0-.37.69,2.82,2.82,0,0,0-.13.76l4.08-.82a1.84,1.84,0,0,0-.56-.94A1.74,1.74,0,0,0,127.56,33Z"/><path class="cls-4" d="M139.71,41.55l-.78.16a6,6,0,0,1-1,.12,5.69,5.69,0,0,1-.95,0,1.76,1.76,0,0,1-.72-.26,1.45,1.45,0,0,1-.46-.57,2.57,2.57,0,0,1-.19-1l-.51-13.91.78-.16a6,6,0,0,1,1-.12,5.69,5.69,0,0,1,1,0,1.52,1.52,0,0,1,.72.26,1.37,1.37,0,0,1,.46.57,2.35,2.35,0,0,1,.19,1Z"/><path class="cls-4" d="M141.64,26.59A2.09,2.09,0,0,1,142.2,25a2.41,2.41,0,0,1,3.23-.12,2.23,2.23,0,0,1,.11,3.07,2.41,2.41,0,0,1-3.23.12A2.08,2.08,0,0,1,141.64,26.59Zm4.81,14.71-.78.16a7.21,7.21,0,0,1-1,.13,7,7,0,0,1-.95,0,1.64,1.64,0,0,1-.72-.27,1.32,1.32,0,0,1-.46-.57,2.3,2.3,0,0,1-.19-1L142,30l.78-.16a7.21,7.21,0,0,1,1-.13,5.69,5.69,0,0,1,.95,0,1.76,1.76,0,0,1,.72.26,1.42,1.42,0,0,1,.46.58,2.3,2.3,0,0,1,.19,1Z"/><path class="cls-4" d="M149.44,41.22a2.6,2.6,0,0,1-.63-.77,2.15,2.15,0,0,1-.27-1,2.2,2.2,0,0,1,.19-1,4.13,4.13,0,0,1,.54-.9l3.95-5-4.42.16a4.2,4.2,0,0,1-.3-.66,2.75,2.75,0,0,1-.16-.88,1.68,1.68,0,0,1,.33-1.23,1.37,1.37,0,0,1,1-.41l7.55-.27a2.49,2.49,0,0,1,.64.77,2.27,2.27,0,0,1,.27,1,2.2,2.2,0,0,1-.19,1,4.23,4.23,0,0,1-.54.89l-3.85,5,4.7-.17a4.2,4.2,0,0,1,.3.66,2.75,2.75,0,0,1,.16.88,1.68,1.68,0,0,1-.32,1.22,1.33,1.33,0,0,1-1,.41Z"/><path class="cls-4" d="M166.51,41a8.7,8.7,0,0,1-2.64-.3,6,6,0,0,1-2.15-1.12,5.39,5.39,0,0,1-1.49-1.94,7.07,7.07,0,0,1-.62-2.78,6.62,6.62,0,0,1,.42-2.74,5.5,5.5,0,0,1,1.29-1.92A5.42,5.42,0,0,1,163.2,29a7.16,7.16,0,0,1,2.19-.43,6.68,6.68,0,0,1,2.33.3,5.51,5.51,0,0,1,1.84,1,4.62,4.62,0,0,1,1.23,1.57,4.81,4.81,0,0,1,.49,2,1.61,1.61,0,0,1-.41,1.26,2.26,2.26,0,0,1-1.25.6l-5.89,1.1a2,2,0,0,0,1.12,1.15,4.4,4.4,0,0,0,1.89.33,7,7,0,0,0,1.85-.32A5.93,5.93,0,0,0,170,37a2,2,0,0,1,.67.65,1.67,1.67,0,0,1,.3.9,1.69,1.69,0,0,1-1,1.64,5.38,5.38,0,0,1-1.7.62A12.16,12.16,0,0,1,166.51,41Zm-1-9.41a2.67,2.67,0,0,0-1,.23,2.08,2.08,0,0,0-.67.52,2.25,2.25,0,0,0-.37.68,2.94,2.94,0,0,0-.12.77l4.07-.82a1.74,1.74,0,0,0-.56-.94A1.78,1.78,0,0,0,165.5,31.58Z"/><path class="cls-4" d="M172.79,34.54a6.94,6.94,0,0,1,.38-2.76,5.18,5.18,0,0,1,1.26-2,5.44,5.44,0,0,1,1.95-1.21,7.66,7.66,0,0,1,2.44-.46,4.17,4.17,0,0,1,.94.05,3.5,3.5,0,0,1,.75.17l-.14-3.88a5.45,5.45,0,0,1,.76-.19,6.38,6.38,0,0,1,1.08-.12,5.69,5.69,0,0,1,.95,0,1.63,1.63,0,0,1,.72.26,1.28,1.28,0,0,1,.45.57,2.58,2.58,0,0,1,.18,1l.41,11.37a2,2,0,0,1-1,1.83,7.29,7.29,0,0,1-1.77.87,9.37,9.37,0,0,1-5.34.11A5.79,5.79,0,0,1,174.69,39a5.4,5.4,0,0,1-1.37-1.91A7,7,0,0,1,172.79,34.54Zm6.7-3.24a2.58,2.58,0,0,0-2,.81,3.21,3.21,0,0,0-.62,2.28,3.4,3.4,0,0,0,.73,2.22,2.32,2.32,0,0,0,1.9.69,2.29,2.29,0,0,0,.77-.16,1.94,1.94,0,0,0,.53-.32l-.19-5.28A2.16,2.16,0,0,0,179.49,31.3Z"/><path class="cls-4" d="M187.51,38a2.16,2.16,0,0,1,2.22-2.34,2.26,2.26,0,0,1,1.72.57,2.3,2.3,0,0,1,.67,1.6,2.31,2.31,0,1,1-4.61.17Zm4-12.25c0,.37,0,.9,0,1.6s0,1.45,0,2.25,0,1.62-.11,2.43-.12,1.52-.21,2.11a1.3,1.3,0,0,1-.28.16l-.4.13-.43.09-.39,0a2.77,2.77,0,0,1-1.17-.18,1.06,1.06,0,0,1-.61-.82,11.32,11.32,0,0,1-.27-1.67c-.08-.75-.16-1.56-.24-2.44s-.15-1.75-.21-2.61-.09-1.6-.11-2.2a4.45,4.45,0,0,1,1.08-.46,4.57,4.57,0,0,1,1.2-.2,2.26,2.26,0,0,1,1.54.4A1.72,1.72,0,0,1,191.49,25.77Z"/></g></svg>