<svg xmlns="http://www.w3.org/2000/svg" viewBox="0 0 194.98 47.93"><defs><style>.cls-1,.cls-3{font-size:40px;font-family:FredokaOne-Regular, Fredoka One;}.cls-1{fill:#8b272d;}.cls-2{letter-spacing:-0.12em;}.cls-3{fill:#ff5252;}.cls-4{fill:#0f65a5;}.cls-5{fill:#399af3;}</style></defs><title>readme-logos</title><g id="Logos"><text class="cls-1" transform="translate(1 31.92)"><tspan class="cls-2">T</tspan><tspan x="24.44" y="0">ac</tspan><tspan class="cls-2" x="68.96" y="0">o</tspan><tspan x="88.16" y="0">Time!</tspan></text><text class="cls-3" transform="translate(0 30.92)"><tspan class="cls-2">T</tspan><tspan x="24.44" y="0">ac</tspan><tspan class="cls-2" x="68.96" y="0">o</tspan><tspan x="88.16" y="0">Time!</tspan></text><path class="cls-4" d="M51.42,36.1c-.72-.22-1.36-.44-2-.67A5.69,5.69,0,0,1,48,34.59a3.63,3.63,0,0,1-1-1.23,4.2,4.2,0,0,1-.42-1.77A3.92,3.92,0,0,1,48,28.27a7,7,0,0,1,4.35-1.38,12.05,12.05,0,0,1,1.93.07,6.18,6.18,0,0,1,1.54.39,2.73,2.73,0,0,1,1,.73,1.81,1.81,0,0,1,.4,1.08A2,2,0,0,1,57,30.24a3,3,0,0,1-.67.78,5.58,5.58,0,0,0-1.44-.54,7.52,7.52,0,0,0-2-.18,3.26,3.26,0,0,0-1.57.36.87.87,0,0,0-.48.77.71.71,0,0,0,.34.58,3.26,3.26,0,0,0,.95.38l1.28.37A9.13,9.13,0,0,1,57,34.47a3.94,3.94,0,0,1,1.32,3,4,4,0,0,1-1.49,3.35,7.51,7.51,0,0,1-4.68,1.43,11.38,11.38,0,0,1-2.06-.1,6.86,6.86,0,0,1-1.67-.47,3.12,3.12,0,0,1-1.14-.83,1.87,1.87,0,0,1-.43-1.17,1.78,1.78,0,0,1,.36-1.2,3.17,3.17,0,0,1,.86-.79,6.29,6.29,0,0,0,1.68.85,5.48,5.48,0,0,0,2.13.31,2.85,2.85,0,0,0,1.64-.42,1,1,0,0,0,.45-.85.81.81,0,0,0-.41-.72,5.08,5.08,0,0,0-1.09-.46Z"/><path class="cls-4" d="M66.63,41.72a8.7,8.7,0,0,1-2.64-.3,6,6,0,0,1-2.15-1.11,5.56,5.56,0,0,1-1.49-1.94,7.16,7.16,0,0,1-.62-2.79,6.46,6.46,0,0,1,.42-2.74,5.24,5.24,0,0,1,1.29-1.92,5.33,5.33,0,0,1,1.88-1.15,7.16,7.16,0,0,1,2.19-.43,6.72,6.72,0,0,1,2.33.3,5.46,5.46,0,0,1,1.83,1,4.65,4.65,0,0,1,1.24,1.57,4.85,4.85,0,0,1,.49,2A1.63,1.63,0,0,1,71,35.48a2.26,2.26,0,0,1-1.25.6l-5.89,1.1A2,2,0,0,0,65,38.33a4.09,4.09,0,0,0,1.89.33,6.45,6.45,0,0,0,1.84-.32,5.84,5.84,0,0,0,1.41-.64,2,2,0,0,1,.67.65,1.67,1.67,0,0,1,.3.9,1.72,1.72,0,0,1-1,1.65,5.34,5.34,0,0,1-1.71.61A11.88,11.88,0,0,1,66.63,41.72Zm-1-9.4a2.41,2.41,0,0,0-1,.22,2,2,0,0,0-.67.52,2.1,2.1,0,0,0-.37.69,2.82,2.82,0,0,0-.13.76l4.08-.82a1.84,1.84,0,0,0-.56-.94A1.78,1.78,0,0,0,65.62,32.32Z"/><path class="cls-4" d="M79.15,41.27A7.47,7.47,0,0,1,76.76,41a5.2,5.2,0,0,1-2-1.07A5.27,5.27,0,0,1,73.46,38a7.28,7.28,0,0,1-.55-2.7,7,7,0,0,1,.38-2.69,5.37,5.37,0,0,1,1.28-2,5.77,5.77,0,0,1,2.07-1.29,8.89,8.89,0,0,1,2.73-.51,8.66,8.66,0,0,1,2.53.27,6.35,6.35,0,0,1,1.83.73,2.64,2.64,0,0,1,.78.74,1.94,1.94,0,0,1,.32,1.07l.47,13a5.45,5.45,0,0,1-.76.19,6.38,6.38,0,0,1-1.08.12,5.69,5.69,0,0,1-.95,0,1.52,1.52,0,0,1-.72-.26,1.43,1.43,0,0,1-.45-.57,3,3,0,0,1-.18-1l-.08-2.28a4,4,0,0,1-.9.28A8.77,8.77,0,0,1,79.15,41.27Zm1.64-9.05-.51-.15a2.81,2.81,0,0,0-.67,0,2.58,2.58,0,0,0-2,.82,3.28,3.28,0,0,0-.61,2.3,3.24,3.24,0,0,0,.75,2.25A2.52,2.52,0,0,0,79.7,38,2.2,2.2,0,0,0,81,37.64Z"/><path class="cls-4" d="M87.28,29.08a6.37,6.37,0,0,1,.75-.17,9,9,0,0,1,1.07-.11,5.69,5.69,0,0,1,1,0,1.76,1.76,0,0,1,.72.26,1.45,1.45,0,0,1,.46.57,2.57,2.57,0,0,1,.19,1l.19,5.16a1.77,1.77,0,0,0,.53,1.38,2,2,0,0,0,1.4.37,3.07,3.07,0,0,0,.9-.13,2.63,2.63,0,0,0,.53-.21l-.3-8.39a4.82,4.82,0,0,1,.75-.17,6.14,6.14,0,0,1,1.06-.11,4.81,4.81,0,0,1,1,0,1.55,1.55,0,0,1,.72.27,1.34,1.34,0,0,1,.47.57,2.67,2.67,0,0,1,.19,1l.26,7.29a2,2,0,0,1-.94,1.84,7,7,0,0,1-2,.88,10.93,10.93,0,0,1-2.52.36,9.19,9.19,0,0,1-2.4-.2,5.29,5.29,0,0,1-1.92-.82A4.07,4.07,0,0,1,88,38.22a5.48,5.48,0,0,1-.51-2.28Z"/><path class="cls-4" d="M107.83,40.23a8.7,8.7,0,0,1-2.64-.3A6.19,6.19,0,0,1,103,38.82a5.59,5.59,0,0,1-1.49-1.94,7,7,0,0,1-.61-2.79,6.65,6.65,0,0,1,.41-2.74,5.5,5.5,0,0,1,1.29-1.92,5.42,5.42,0,0,1,1.88-1.15,7.16,7.16,0,0,1,2.19-.43,6.68,6.68,0,0,1,2.33.3,5.51,5.51,0,0,1,1.84,1,4.72,4.72,0,0,1,1.23,1.57,4.86,4.86,0,0,1,.5,2A1.66,1.66,0,0,1,112.2,34a2.36,2.36,0,0,1-1.26.59l-5.89,1.1a2,2,0,0,0,1.12,1.15,4.14,4.14,0,0,0,1.89.33,6.58,6.58,0,0,0,1.85-.32,5.84,5.84,0,0,0,1.41-.64,2.07,2.07,0,0,1,.67.65,1.74,1.74,0,0,1,.29.9,1.72,1.72,0,0,1-1,1.65,5.37,5.37,0,0,1-1.7.61A12.16,12.16,0,0,1,107.83,40.23Zm-1-9.4a2.49,2.49,0,0,0-1,.22,2.18,2.18,0,0,0-.66.52,1.93,1.93,0,0,0-.37.69,2.48,2.48,0,0,0-.13.76l4.07-.82a1.77,1.77,0,0,0-1.92-1.37Z"/><path class="cls-4" d="M119,39.42l-.77.16a6,6,0,0,1-1,.12,5.64,5.64,0,0,1-1,0,1.59,1.59,0,0,1-.72-.26,1.47,1.47,0,0,1-.47-.57,2.78,2.78,0,0,1-.19-1L114.33,24l.78-.16a5.91,5.91,0,0,1,1-.12,5.74,5.74,0,0,1,.95,0,1.55,1.55,0,0,1,.71.26,1.47,1.47,0,0,1,.47.57,2.78,2.78,0,0,1,.19,1Z"/><path class="cls-4" d="M120.9,24.46a2.13,2.13,0,0,1,.56-1.56,2.43,2.43,0,0,1,3.24-.12,2.18,2.18,0,0,1,.67,1.52,2.11,2.11,0,0,1-.56,1.55,2.4,2.4,0,0,1-3.24.12A2.14,2.14,0,0,1,120.9,24.46Zm4.81,14.71-.77.17a9.2,9.2,0,0,1-1,.12,5.64,5.64,0,0,1-1,0,1.71,1.71,0,0,1-.72-.26,1.47,1.47,0,0,1-.47-.57,2.78,2.78,0,0,1-.19-1l-.35-9.76.77-.16a6.14,6.14,0,0,1,1-.12,5.72,5.72,0,0,1,1,0,1.55,1.55,0,0,1,.72.27,1.34,1.34,0,0,1,.47.57,2.67,2.67,0,0,1,.19,1Z"/><path class="cls-4" d="M128.71,39.09a2.51,2.51,0,0,1-.64-.77,2.27,2.27,0,0,1-.26-1,2.06,2.06,0,0,1,.19-1,4.75,4.75,0,0,1,.53-.89l3.95-5-4.41.16a3.45,3.45,0,0,1-.3-.66,3.06,3.06,0,0,1-.17-.88,1.68,1.68,0,0,1,.33-1.23,1.35,1.35,0,0,1,1-.4l7.56-.28a2.63,2.63,0,0,1,.64.77,2.27,2.27,0,0,1,.26,1,2.2,2.2,0,0,1-.19,1,4.53,4.53,0,0,1-.53.9l-3.86,5,4.71-.17a3.49,3.49,0,0,1,.29.66,2.75,2.75,0,0,1,.17.88,1.68,1.68,0,0,1-.33,1.23,1.35,1.35,0,0,1-1,.4Z"/><path class="cls-4" d="M145.78,38.86a8.63,8.63,0,0,1-2.64-.3A6.15,6.15,0,0,1,141,37.45a5.54,5.54,0,0,1-1.48-1.94,7,7,0,0,1-.62-2.79A6.46,6.46,0,0,1,139.3,30a5.35,5.35,0,0,1,1.28-1.92,5.42,5.42,0,0,1,1.88-1.15,7.16,7.16,0,0,1,2.2-.43,6.66,6.66,0,0,1,2.32.3,5.51,5.51,0,0,1,1.84,1,4.77,4.77,0,0,1,1.24,1.57,5,5,0,0,1,.49,2,1.63,1.63,0,0,1-.41,1.26,2.26,2.26,0,0,1-1.25.6l-5.9,1.1a2,2,0,0,0,1.13,1.15,4.08,4.08,0,0,0,1.88.33,6.52,6.52,0,0,0,1.85-.32,5.84,5.84,0,0,0,1.41-.64,2.07,2.07,0,0,1,.67.65,1.76,1.76,0,0,1,.3.9,1.73,1.73,0,0,1-.95,1.65,5.43,5.43,0,0,1-1.71.61A12,12,0,0,1,145.78,38.86Zm-1-9.4a2.4,2.4,0,0,0-1,.22,2,2,0,0,0-1,1.21,2.82,2.82,0,0,0-.13.76l4.08-.82a1.8,1.8,0,0,0-.57-.94A1.75,1.75,0,0,0,144.76,29.46Z"/><path class="cls-4" d="M152.05,32.41a7.18,7.18,0,0,1,.38-2.76,5.18,5.18,0,0,1,1.26-2,5.44,5.44,0,0,1,1.95-1.21,7.73,7.73,0,0,1,2.45-.46,4.9,4.9,0,0,1,.94.05,3.82,3.82,0,0,1,.75.17l-.14-3.88a6.78,6.78,0,0,1,.76-.19,9.39,9.39,0,0,1,1.08-.12,5.57,5.57,0,0,1,.94,0,1.54,1.54,0,0,1,.72.26,1.37,1.37,0,0,1,.46.57,3,3,0,0,1,.18,1l.41,11.37a2.09,2.09,0,0,1-1,1.84,7.3,7.3,0,0,1-1.77.86,9.37,9.37,0,0,1-5.34.11A5.62,5.62,0,0,1,154,36.88,5.37,5.37,0,0,1,152.59,35,7,7,0,0,1,152.05,32.41Zm6.7-3.24a2.6,2.6,0,0,0-2,.81,3.19,3.19,0,0,0-.61,2.28,3.35,3.35,0,0,0,.73,2.22,2.31,2.31,0,0,0,1.89.69,2.12,2.12,0,0,0,.78-.16,1.85,1.85,0,0,0,.53-.32l-.19-5.28A2.2,2.2,0,0,0,158.75,29.17Z"/><path class="cls-4" d="M166.78,35.89a2.37,2.37,0,0,1,3.93-1.76,2.44,2.44,0,0,1,.12,3.23,2.25,2.25,0,0,1-1.67.7,2.2,2.2,0,0,1-1.71-.57A2.24,2.24,0,0,1,166.78,35.89Zm4-12.25c0,.37,0,.9,0,1.6s0,1.45,0,2.26-.05,1.61-.1,2.43-.12,1.51-.21,2.1a1.15,1.15,0,0,1-.28.16,2.46,2.46,0,0,1-.41.13,3,3,0,0,1-.43.09,2.9,2.9,0,0,1-.38,0,2.62,2.62,0,0,1-1.17-.18,1.07,1.07,0,0,1-.62-.81,13.9,13.9,0,0,1-.26-1.67c-.09-.75-.17-1.57-.25-2.45s-.14-1.74-.2-2.61-.09-1.59-.12-2.2a4.81,4.81,0,0,1,1.08-.46,4.64,4.64,0,0,1,1.21-.2,2.35,2.35,0,0,1,1.54.4A1.75,1.75,0,0,1,170.76,23.64Z"/><path class="cls-5" d="M50.94,35.61c-.71-.21-1.36-.43-1.94-.66a5.67,5.67,0,0,1-1.52-.85,3.64,3.64,0,0,1-1-1.22,4.05,4.05,0,0,1-.41-1.77,3.91,3.91,0,0,1,1.45-3.32,6.93,6.93,0,0,1,4.36-1.38,11.93,11.93,0,0,1,1.92.07,5.33,5.33,0,0,1,1.54.39,2.62,2.62,0,0,1,1,.73,1.71,1.71,0,0,1,.4,1.08,1.92,1.92,0,0,1-.25,1.08,3,3,0,0,1-.67.78A5.5,5.5,0,0,0,54.39,30a6.81,6.81,0,0,0-2-.18,3.19,3.19,0,0,0-1.58.36.88.88,0,0,0-.47.77.72.72,0,0,0,.33.58,3.26,3.26,0,0,0,1,.38l1.29.36A9.3,9.3,0,0,1,56.49,34a4,4,0,0,1,1.32,3,4,4,0,0,1-1.49,3.36,7.57,7.57,0,0,1-4.68,1.43,10.41,10.41,0,0,1-2-.11,6.41,6.41,0,0,1-1.68-.46,3,3,0,0,1-1.13-.83,1.88,1.88,0,0,1-.44-1.17A1.77,1.77,0,0,1,46.7,38a3.17,3.17,0,0,1,.86-.79,6.29,6.29,0,0,0,1.68.85,5.76,5.76,0,0,0,2.14.31A2.87,2.87,0,0,0,53,37.94a1,1,0,0,0,.45-.86.83.83,0,0,0-.41-.72,5.24,5.24,0,0,0-1.1-.45Z"/><path class="cls-5" d="M66.15,41.23a8.12,8.12,0,0,1-2.64-.3,5.87,5.87,0,0,1-2.15-1.11,5.39,5.39,0,0,1-1.49-1.94,6.9,6.9,0,0,1-.61-2.78,6.62,6.62,0,0,1,.41-2.74,5.29,5.29,0,0,1,3.17-3.07A7.16,7.16,0,0,1,65,28.86a6.68,6.68,0,0,1,2.33.3,5.51,5.51,0,0,1,1.84,1,4.68,4.68,0,0,1,1.23,1.56,5.06,5.06,0,0,1,.5,2A1.61,1.61,0,0,1,70.51,35a2.26,2.26,0,0,1-1.25.6l-5.89,1.1a2,2,0,0,0,1.12,1.15,4.43,4.43,0,0,0,1.89.33,7,7,0,0,0,1.85-.32,5.75,5.75,0,0,0,1.4-.64,2,2,0,0,1,.68.65,1.74,1.74,0,0,1,.29.9,1.69,1.69,0,0,1-.95,1.64A5.38,5.38,0,0,1,68,41,13.56,13.56,0,0,1,66.15,41.23Zm-1-9.4a2.49,2.49,0,0,0-1,.23,2,2,0,0,0-.66.52,1.81,1.81,0,0,0-.37.68A2.58,2.58,0,0,0,63,34l4.07-.82a1.77,1.77,0,0,0-1.92-1.37Z"/><path class="cls-5" d="M78.67,40.78a7.5,7.5,0,0,1-2.39-.28,5.13,5.13,0,0,1-3.3-3,7.38,7.38,0,0,1-.55-2.69,6.93,6.93,0,0,1,.38-2.69,5.51,5.51,0,0,1,1.29-2,5.76,5.76,0,0,1,2.06-1.28,8.4,8.4,0,0,1,2.74-.51,8.7,8.7,0,0,1,2.53.27,6.59,6.59,0,0,1,1.82.72,3,3,0,0,1,.79.74,2,2,0,0,1,.31,1.07l.47,13.05a5.4,5.4,0,0,1-.76.18,7.63,7.63,0,0,1-1.07.13,5.64,5.64,0,0,1-.95,0,1.71,1.71,0,0,1-.72-.26,1.28,1.28,0,0,1-.45-.57,2.58,2.58,0,0,1-.18-1L80.6,40.4a3.66,3.66,0,0,1-.9.27A6.91,6.91,0,0,1,78.67,40.78Zm1.65-9a3.09,3.09,0,0,0-.51-.15,2.86,2.86,0,0,0-.68-.05,2.6,2.6,0,0,0-2,.83,3.26,3.26,0,0,0-.62,2.29,3.2,3.2,0,0,0,.76,2.26,2.49,2.49,0,0,0,1.92.62,2.19,2.19,0,0,0,1.28-.38Z"/><path class="cls-5" d="M86.81,28.6a5.52,5.52,0,0,1,.75-.17,7.17,7.17,0,0,1,1.06-.11,5.69,5.69,0,0,1,.95,0,1.52,1.52,0,0,1,.72.26,1.37,1.37,0,0,1,.46.57,2.55,2.55,0,0,1,.2,1l.18,5.15a1.81,1.81,0,0,0,.53,1.39,2.06,2.06,0,0,0,1.41.37,3.36,3.36,0,0,0,.89-.13,3,3,0,0,0,.54-.21l-.31-8.4a6.37,6.37,0,0,1,.75-.17A9.23,9.23,0,0,1,96,28.05a5.69,5.69,0,0,1,.95,0,1.76,1.76,0,0,1,.72.26,1.45,1.45,0,0,1,.46.57,2.57,2.57,0,0,1,.19,1l.27,7.29A2,2,0,0,1,97.65,39a6.49,6.49,0,0,1-2,.87,10.92,10.92,0,0,1-2.52.37,9.73,9.73,0,0,1-2.4-.2,5.42,5.42,0,0,1-1.91-.82,4,4,0,0,1-1.28-1.5,5.68,5.68,0,0,1-.52-2.28Z"/><path class="cls-5" d="M107.36,39.75a8.63,8.63,0,0,1-2.64-.3,6,6,0,0,1-2.16-1.12,5.48,5.48,0,0,1-1.48-1.94,6.9,6.9,0,0,1-.62-2.78,6.46,6.46,0,0,1,.42-2.74A5.18,5.18,0,0,1,102.16,29,5.51,5.51,0,0,1,104,27.8a7.28,7.28,0,0,1,2.2-.43,6.72,6.72,0,0,1,2.33.3,5.56,5.56,0,0,1,1.83,1,4.77,4.77,0,0,1,1.24,1.57,5,5,0,0,1,.49,2,1.65,1.65,0,0,1-.41,1.26,2.26,2.26,0,0,1-1.25.6l-5.89,1.1a2,2,0,0,0,1.12,1.15,4.35,4.35,0,0,0,1.88.33,6.82,6.82,0,0,0,1.85-.32,5.84,5.84,0,0,0,1.41-.64,2.07,2.07,0,0,1,.67.65,1.67,1.67,0,0,1,.3.9,1.71,1.71,0,0,1-1,1.64,5.35,5.35,0,0,1-1.71.62A12,12,0,0,1,107.36,39.75Zm-1-9.41a2.41,2.41,0,0,0-1,.23,2,2,0,0,0-1,1.2,3,3,0,0,0-.13.77l4.08-.82a1.81,1.81,0,0,0-.56-.94A1.78,1.78,0,0,0,106.35,30.34Z"/><path class="cls-5" d="M118.5,38.93l-.78.17a8.94,8.94,0,0,1-1,.12,5.69,5.69,0,0,1-1,0,1.76,1.76,0,0,1-.72-.26,1.45,1.45,0,0,1-.46-.57,2.39,2.39,0,0,1-.19-1l-.51-13.91.78-.16a6,6,0,0,1,1-.12,5.76,5.76,0,0,1,1,0,1.64,1.64,0,0,1,.72.27,1.32,1.32,0,0,1,.46.57,2.47,2.47,0,0,1,.19,1Z"/><path class="cls-5" d="M120.43,24a2.13,2.13,0,0,1,.55-1.56,2.17,2.17,0,0,1,1.6-.68,2.14,2.14,0,0,1,1.64.56,2.22,2.22,0,0,1,.11,3.07,2.41,2.41,0,0,1-3.23.12A2.08,2.08,0,0,1,120.43,24Zm4.8,14.71-.77.16a6,6,0,0,1-1,.12,5.76,5.76,0,0,1-1,0,1.64,1.64,0,0,1-.72-.27,1.26,1.26,0,0,1-.46-.57,2.3,2.3,0,0,1-.19-1l-.36-9.77.78-.16a8.94,8.94,0,0,1,1-.12,5.69,5.69,0,0,1,1,0,1.76,1.76,0,0,1,.72.26,1.45,1.45,0,0,1,.46.57,2.57,2.57,0,0,1,.19,1Z"/><path class="cls-5" d="M128.23,38.61a2.8,2.8,0,0,1-.64-.77,2.27,2.27,0,0,1-.26-1,2.18,2.18,0,0,1,.19-1,4.53,4.53,0,0,1,.53-.9L132,30l-4.41.16a4.2,4.2,0,0,1-.3-.66,2.75,2.75,0,0,1-.16-.88,1.66,1.66,0,0,1,.33-1.23,1.33,1.33,0,0,1,1-.41l7.55-.27a2.38,2.38,0,0,1,.64.77,2.27,2.27,0,0,1,.27,1,2.21,2.21,0,0,1-.2,1,4,4,0,0,1-.53.89l-3.85,5,4.7-.17a4.86,4.86,0,0,1,.3.67,2.7,2.7,0,0,1,.16.88,1.64,1.64,0,0,1-.33,1.22,1.29,1.29,0,0,1-1,.41Z"/><path class="cls-5" d="M145.3,38.37a8.12,8.12,0,0,1-2.64-.3A5.72,5.72,0,0,1,140.51,37,5.39,5.39,0,0,1,139,35a7.07,7.07,0,0,1-.62-2.78,6.46,6.46,0,0,1,.42-2.74A5.29,5.29,0,0,1,142,26.43a7.16,7.16,0,0,1,2.19-.43,6.72,6.72,0,0,1,2.33.3,5.61,5.61,0,0,1,1.84,1,4.68,4.68,0,0,1,1.23,1.56,4.89,4.89,0,0,1,.49,2,1.61,1.61,0,0,1-.41,1.26,2.26,2.26,0,0,1-1.25.6l-5.89,1.1A2,2,0,0,0,143.64,35a4.37,4.37,0,0,0,1.89.33,7,7,0,0,0,1.85-.32,5.93,5.93,0,0,0,1.4-.64,2,2,0,0,1,.67.65,1.67,1.67,0,0,1,.3.9,1.69,1.69,0,0,1-.95,1.64,5.35,5.35,0,0,1-1.71.62A11.81,11.81,0,0,1,145.3,38.37Zm-1-9.4a2.41,2.41,0,0,0-1,.23,2,2,0,0,0-.67.52,2.14,2.14,0,0,0-.37.68,3,3,0,0,0-.13.77l4.08-.83a1.88,1.88,0,0,0-.56-.94A1.82,1.82,0,0,0,144.29,29Z"/><path class="cls-5" d="M151.58,31.93a7,7,0,0,1,.38-2.77,5.22,5.22,0,0,1,1.26-2A5.46,5.46,0,0,1,155.17,26a8.26,8.26,0,0,1,2.44-.46,5.86,5.86,0,0,1,.94,0,4.14,4.14,0,0,1,.75.18l-.14-3.88a5.45,5.45,0,0,1,.76-.19,6.38,6.38,0,0,1,1.08-.12,5.69,5.69,0,0,1,.95,0,1.52,1.52,0,0,1,.72.26,1.43,1.43,0,0,1,.45.57,3,3,0,0,1,.18,1l.41,11.37a2,2,0,0,1-1,1.83,7.29,7.29,0,0,1-1.77.87,9.37,9.37,0,0,1-5.34.11,5.79,5.79,0,0,1-2.13-1.17,5.4,5.4,0,0,1-1.37-1.91A7,7,0,0,1,151.58,31.93Zm6.7-3.25a2.65,2.65,0,0,0-2,.82,3.2,3.2,0,0,0-.61,2.28,3.4,3.4,0,0,0,.73,2.22,2.32,2.32,0,0,0,1.9.69,2.29,2.29,0,0,0,.77-.16,1.94,1.94,0,0,0,.53-.32l-.19-5.28A2.26,2.26,0,0,0,158.28,28.68Z"/><path class="cls-5" d="M166.3,35.41a2.16,2.16,0,0,1,2.22-2.34,2.24,2.24,0,0,1,1.72.57,2.3,2.3,0,0,1,.67,1.6,2.16,2.16,0,0,1-2.22,2.34,2.15,2.15,0,0,1-2.39-2.17Zm4-12.25q0,.56,0,1.59c0,.7,0,1.45,0,2.26s-.06,1.62-.11,2.43-.12,1.52-.21,2.11a1.62,1.62,0,0,1-.28.16l-.4.13-.43.09-.39,0a2.94,2.94,0,0,1-1.17-.18,1.09,1.09,0,0,1-.62-.82,13.24,13.24,0,0,1-.26-1.67c-.08-.75-.16-1.56-.24-2.44s-.15-1.75-.21-2.61-.09-1.6-.11-2.2a4.54,4.54,0,0,1,1.07-.46,4.71,4.71,0,0,1,1.21-.2,2.26,2.26,0,0,1,1.54.4A1.72,1.72,0,0,1,170.28,23.16Z"/></g></svg>