<svg id="Capa_1" data-name="Capa 1" xmlns="http://www.w3.org/2000/svg" viewBox="0 0 1165.56 722.45"><defs><style>.cls-1{fill:#fff;}</style></defs><title>taco4</title><path class="cls-1" d="M2132-74.39c-.19-10.81-2.81-78.93-38.06-155.67-22.23-48.37-52.87-90.31-91.08-124.65-39.7-35.67-87.52-63-142.49-81.53-10.93-6.31-24.05-10.1-38.55-10.78l-.76,0h0c-7.46-.29-17.31-1.76-21.9-7.14-4.4-5.15-4-13.57-3.85-15.08l.48-2.38-.26-3.64c-2.18-30.45-16.65-45.51-28.4-52.78-25.31-15.66-56.17-6.61-65.7-3.18-8.18,1.74-14.56,1.78-17.27.08s-5.76-7.11-8.75-12.34c-3.46-6.08-7.39-13-13.22-19.23-22.88-24.61-48.63-37.59-76.55-38.56-29.29-1-60,12.06-86.42,36.81-13.25,12.41-25,18.48-35,18-8.71-.37-17.38-5.32-26.56-10.57-3-1.71-6.1-3.47-9.24-5.1-31.5-16.25-54.9-10.23-69-2.32-19.06,10.69-33,31.25-41.49,61.08-.69,2.43-1.32,4.82-1.88,7.15q-7.17-4.34-14.3-7.76C1275.48-516.64,1250-519.69,1226-513c-36.5,10.13-66.21,41.47-88.31,93.15a361.61,361.61,0,0,0-21.42,69.24,27.33,27.33,0,0,0-.31,7.74,86.1,86.1,0,0,0-25.47-.74c-21.77,2.74-40.67,14.48-54.66,33.94l-1.23,1.72-1,1.88a103,103,0,0,0-9.55,48,92.49,92.49,0,0,0,18,51c-14.55,6.65-26.9,14-37.24,22.29-20,16-32.08,35-35.87,56.44-5.52,31.29,6.82,64.53,36.66,98.82A286.68,286.68,0,0,0,1039,2.7q7.2,30.71,24.25,54.47c45.56,63.36,125.56,62.91,135.16,62.62H1824.5a27.5,27.5,0,0,0,0-55H1197.39l-.73,0c-2.36.06-59.72,1.08-89-40.1-29.17-41-24.55-114.13,13.35-211.49,1.89-4.34,28.41-63.53,84.34-117.49,33.26-32.09,70.41-56.16,110.39-71.54,49.83-19.17,104.63-24.95,162.91-17.17l1.28.14c.76.06,76.47,7,153.87,52.71,44.91,26.51,81.2,60.7,107.88,101.62,33.49,51.37,52.11,114,55.35,186.22.13,5.42,1.54,36.1,17.18,71.25,11.39,25.61,27.52,47.14,47.76,64.1.48.42,1,.83,1.47,1.22,19.11,15.65,41.82,27.3,67.67,34.53l1.7.48,1.75.25a194.42,194.42,0,0,0,25.82,1.53c31.72,0,86.09-6.27,125.92-44C2122.46,42.74,2137.85-8.21,2132-74.39Zm-1050-205.32c6-7.35,11.45-8.87,15.16-9.36,6.09-.8,12.89.7,19.32,3.13a472.76,472.76,0,0,0-30.12,46.19,37.75,37.75,0,0,1-7.32-19.31A48.87,48.87,0,0,1,1082.07-279.71Zm-58.95,160.9c1.9-10.8,11.23-21.2,27.11-30.64a435.94,435.94,0,0,0-14.41,69.27C1025.75-95,1021.28-108.39,1023.12-118.81ZM1172-348.4c7.48-32.34,30.7-101.14,68.77-111.65,21.64-6,46.91,8.08,69.83,27.68q-8,2.67-15.85,5.73C1250.22-409.33,1209-383,1172-348.4Zm383.61-84.67c19.32-8.39,38.81-12.9,52.09-7,11.62,5.17,18.31,19.66,22.15,35.46A478.86,478.86,0,0,0,1555.56-433.07Zm134,63.56c0-.25,0-.49,0-.74-2.89-63.4-23-103.8-59.66-120.09-30.12-13.37-67.82-8.55-112,14.32a335.88,335.88,0,0,0-43.48,27.16,401.3,401.3,0,0,0-100.25,1.41q-4.56-4.83-9.05-9.31a27.79,27.79,0,0,0,.86-5.12c1.41-18.44,9.51-48.5,20.46-54.61,4.19-2.34,11.47.48,16.84,3.25,2.11,1.09,4.57,2.5,7.19,4,12.42,7.09,29.44,16.81,51.47,17.75,25.64,1.1,50.12-9.65,74.9-32.84,9.09-8.51,27.3-22.66,46.92-22,13,.45,25.44,7.33,38.18,21,1.49,1.6,3.74,5.54,5.72,9,5.44,9.54,12.88,22.59,27.19,31.62,16.19,10.2,36.07,12.37,60.76,6.59l2-.37,2.18-.95c7.06-2.73,16.35-3.4,18.46-1.92,0,0,1.57,1.74,2.29,7.84-.75,9.77-.56,33.81,16,54,9.35,11.38,27.13,25.12,59.16,27.19q10.15,2.7,20,5.8a9.66,9.66,0,0,1,2.75,4.91c2.48,11.91-12.35,38.56-63.35,63.13a27.4,27.4,0,0,0-13.59,14.53A377.33,377.33,0,0,0,1689.6-369.51ZM1852-54.38c-3.37-76.28-22.2-143.74-56-200.82a291.17,291.17,0,0,1,34.4-9.25c31.64-6.34,55.59-4.65,67.44,4.76,14,11.07,12.64,37.51,9.09,57.74-5,28.75-13.28,36.66-18.72,41.89-4.81,4.62-13.76,13.21-13.75,27.6s9.47,24.63,14,29.6c5.45,6,13.36,13.54,25.33,25,3.65,3.49,7.67,7.35,12.1,11.63,17.11,16.49,25.31,37.71,20.89,54.06-5,18.3-25.76,33.68-59.14,44a123.44,123.44,0,0,1-22.45-33.56A147.52,147.52,0,0,1,1852-53.59Zm196.67,91.32c-32.46,31-84.54,29.9-101,28.68,33.2-19.53,46.94-43.69,52.27-63.4,9.72-36-4-77.35-35.8-108-4.47-4.3-8.52-8.2-12.2-11.72-5.51-5.29-10.69-10.26-14.93-14.42,8.59-11,18.62-29.05,24.14-60.5,4.45-25.35,4.29-46.66-.51-65.14-4.88-18.85-14.51-34.07-28.62-45.24-15.52-12.3-35.65-19-60.12-20.19.64-.81,1.29-1.61,1.91-2.42,9.35-12.34,15.51-25.4,18.24-38.37a331.34,331.34,0,0,1,73.13,49.11c32.54,29,58.77,64.54,78,105.66,33.27,71.27,34,135.46,34,136v1.25l.12,1.25C2081.63-21.53,2072,14.61,2048.64,36.94Z" transform="translate(-967.67 601.36)"/><path class="cls-1" d="M1265.38-263.35a70.75,70.75,0,0,0-70.67,70.67,25,25,0,0,0,25,25,25,25,0,0,0,25-25,20.7,20.7,0,0,1,20.67-20.67A20.69,20.69,0,0,1,1286-192.68a25,25,0,0,0,25,25,25,25,0,0,0,25-25A70.75,70.75,0,0,0,1265.38-263.35Z" transform="translate(-967.67 601.36)"/><path class="cls-1" d="M1460.53-343.2a70.75,70.75,0,0,0-70.67,70.67,25,25,0,0,0,25,25,25,25,0,0,0,25-25,20.69,20.69,0,0,1,20.67-20.67,20.69,20.69,0,0,1,20.67,20.67,25,25,0,0,0,25,25,25,25,0,0,0,25-25A70.75,70.75,0,0,0,1460.53-343.2Z" transform="translate(-967.67 601.36)"/><path class="cls-1" d="M1558.47-184.55a25,25,0,0,0,25,25,25,25,0,0,0,25-25,20.7,20.7,0,0,1,20.67-20.67,20.69,20.69,0,0,1,20.67,20.67,25,25,0,0,0,25,25,25,25,0,0,0,25-25,70.75,70.75,0,0,0-70.67-70.67A70.75,70.75,0,0,0,1558.47-184.55Z" transform="translate(-967.67 601.36)"/><path class="cls-1" d="M1454.77-152.78a70.75,70.75,0,0,0-70.66,70.67,25,25,0,0,0,25,25,25,25,0,0,0,25-25,20.69,20.69,0,0,1,20.66-20.67,20.7,20.7,0,0,1,20.67,20.67,25,25,0,0,0,25,25,25,25,0,0,0,25-25A70.75,70.75,0,0,0,1454.77-152.78Z" transform="translate(-967.67 601.36)"/></svg>